<?xml version="1.0" encoding="UTF-8"?>
<svg width="151px" height="62px" viewBox="0 0 151 62" version="1.1" xmlns="http://www.w3.org/2000/svg" xmlns:xlink="http://www.w3.org/1999/xlink">
    <title>Jilliemac logo</title>
    <g id="Welcome" stroke="none" stroke-width="1" fill="none" fill-rule="evenodd">
        <g id="Desktop-HD" transform="translate(-145.000000, -324.000000)">
            <g id="jilliemac-logo-2020" transform="translate(25.872881, 16.116279)">
                <g id="Group" transform="translate(34.166232, 0.001244)">
                    <g id="FINAL" transform="translate(87.960887, 309.382477)">
                        <g id="Group-5" stroke="#3E5874" stroke-linecap="round" stroke-linejoin="round" stroke-width="2">
                            <path d="M38.152709,32.3775797 C25.6453478,30.8908846 19.7740949,33.1465752 20.5389502,39.1446513 C21.6862332,48.1417656 27.1816265,51.1449139 29.4158092,51.1449139 C31.649992,51.1449139 37.5302089,35.8504913 46.1391218,17.0657802 C38.16853,18.2130632 4.28876757,-2.76607669 8.33401319,10.3025809" id="Path-Copy-2" transform="translate(27.069561, 28.572457) rotate(-23.000000) translate(-27.069561, -28.572457) "></path>
                            <g id="Group-4" transform="translate(28.072670, 8.265154)">
                                <path d="M116.536433,40.1729063 C98.4590189,41.3201893 21.5733032,20.3506866 30.7479703,33.4193442" id="Path-Copy" transform="translate(73.263637, 34.666974) rotate(-190.000000) translate(-73.263637, -34.666974) "></path>
                                <g id="Group-Copy-4" transform="translate(22.500000, 22.500000) rotate(-22.000000) translate(-22.500000, -22.500000) translate(5.000000, 6.000000)">
                                    <path d="M12.4230385,0.189714038 C9.64066529,6.38220018 5.6515005,15.3053373 0.455544068,26.9591252 C5.68861447,16.9383521 13.649562,4.91342439 16.9898197,5.58147593 C20.3300774,6.24952748 9.1402141,20.055926 10.6433301,24.9549706 M10.6433301,24.9549706 C14.1506007,19.0538487 18.2145809,14.0434621 22.8909416,9.86813999 C25.3961349,9.03307556 25.9528445,10.7032044 24.3940576,14.8228556 C22.1115482,20.9466614 17.1568326,29.9096862 18.8269614,32.4148795" id="Shape"></path>
                                </g>
                            </g>
                        </g>
                        <g id="Group-Copy-5" transform="translate(70.500000, 30.500000)" fill="#3E5874" fill-rule="nonzero">
                            <path d="M0.435415343,0.957913755 L2.61249206,0.957913755 C3.0479074,0.957913755 3.39623968,1.04499682 3.83165502,1.13207989 C4.26707036,1.30624603 4.61540264,1.48041217 4.96373491,1.74166137 C5.31206719,2.00291058 5.57331639,2.35124285 5.74748253,2.7866582 C5.92164867,3.22207354 6.0958148,3.65748888 6.0958148,4.26707036 C6.0958148,4.78956878 6.00873174,5.31206719 5.74748253,5.74748253 C5.57331639,6.18289787 5.31206719,6.53123015 4.96373491,6.79247935 C4.61540264,7.05372856 4.26707036,7.31497777 3.83165502,7.40206083 C3.39623968,7.57622697 2.96082433,7.57622697 2.61249206,7.57622697 L0.435415343,7.57622697 L0.435415343,0.957913755 Z M1.13207989,6.96664549 L2.43832592,6.96664549 C2.96082433,6.96664549 3.39623968,6.87956242 3.74457195,6.70539629 C4.09290423,6.53123015 4.4412365,6.35706401 4.70248571,6.0958148 C4.96373491,5.8345656 5.13790105,5.57331639 5.22498412,5.22498412 C5.31206719,4.87665184 5.39915026,4.52831957 5.39915026,4.26707036 C5.39915026,3.91873809 5.31206719,3.57040581 5.22498412,3.30915661 C5.13790105,2.96082433 4.96373491,2.69957513 4.70248571,2.43832592 C4.4412365,2.17707672 4.17998729,2.00291058 3.74457195,1.82874444 C3.39623968,1.6545783 2.96082433,1.56749524 2.43832592,1.56749524 L1.13207989,1.56749524 L1.13207989,6.96664549 Z" id="Shape"></path>
                            <polygon id="Path" points="11.407882 6.96664549 14.9782878 6.96664549 14.9782878 7.57622697 10.7112174 7.57622697 10.7112174 0.957913755 14.8041217 0.957913755 14.8041217 1.56749524 11.407882 1.56749524 11.407882 3.83165502 14.6299555 3.83165502 14.6299555 4.4412365 11.407882 4.4412365 11.407882 6.96664549"></polygon>
                            <path d="M22.6415978,2.08999365 C22.3803486,1.6545783 21.9449333,1.48041217 21.3353518,1.48041217 C21.1611857,1.48041217 20.9870195,1.48041217 20.8128534,1.56749524 C20.6386873,1.6545783 20.4645211,1.6545783 20.3774381,1.74166137 C20.2032719,1.82874444 20.1161889,2.00291058 20.0291058,2.08999365 C19.9420227,2.26415978 19.9420227,2.43832592 19.9420227,2.61249206 C19.9420227,2.87374127 20.0291058,3.13499047 20.2032719,3.30915661 C20.3774381,3.48332275 20.5516042,3.57040581 20.8128534,3.74457195 C21.0741026,3.83165502 21.3353518,3.91873809 21.596601,4.00582116 C21.8578502,4.09290423 22.2061825,4.17998729 22.3803486,4.35415343 C22.6415978,4.52831957 22.815764,4.70248571 22.9899301,4.87665184 C23.1640963,5.05081798 23.2511793,5.39915026 23.2511793,5.8345656 C23.2511793,6.0958148 23.1640963,6.44414708 23.0770132,6.61831322 C22.9899301,6.87956242 22.815764,7.05372856 22.5545148,7.2278947 C22.2932656,7.40206083 22.1190994,7.4891439 21.8578502,7.57622697 C21.596601,7.66331004 21.3353518,7.75039311 21.0741026,7.75039311 C20.6386873,7.75039311 20.290355,7.66331004 19.9420227,7.4891439 C19.5936904,7.31497777 19.2453582,7.05372856 18.984109,6.70539629 L19.5936904,6.26998094 C19.7678566,6.53123015 19.9420227,6.70539629 20.2032719,6.87956242 C20.4645211,7.05372856 20.7257703,7.14081163 21.0741026,7.14081163 C21.2482687,7.14081163 21.4224349,7.14081163 21.596601,7.05372856 C21.7707672,6.96664549 21.9449333,6.87956242 22.0320164,6.79247935 C22.2061825,6.70539629 22.2932656,6.53123015 22.3803486,6.44414708 C22.4674317,6.35706401 22.5545148,6.0958148 22.5545148,5.92164867 C22.5545148,5.66039946 22.4674317,5.48623332 22.3803486,5.31206719 C22.2932656,5.13790105 22.1190994,5.05081798 22.0320164,4.96373491 C21.8578502,4.87665184 21.6836841,4.78956878 21.509518,4.70248571 C21.3353518,4.61540264 21.0741026,4.52831957 20.8999365,4.52831957 C20.7257703,4.4412365 20.4645211,4.35415343 20.290355,4.26707036 C20.1161889,4.17998729 19.9420227,4.09290423 19.7678566,3.91873809 C19.5936904,3.74457195 19.5066074,3.65748888 19.4195243,3.39623968 C19.3324412,3.22207354 19.2453582,2.96082433 19.2453582,2.61249206 C19.2453582,2.26415978 19.3324412,2.00291058 19.4195243,1.74166137 C19.5066074,1.48041217 19.6807735,1.30624603 19.9420227,1.13207989 C20.2032719,0.957913755 20.3774381,0.870830686 20.6386873,0.783747618 C20.8999365,0.696664549 21.1611857,0.696664549 21.4224349,0.696664549 C21.7707672,0.696664549 22.1190994,0.783747618 22.4674317,0.870830686 C22.815764,0.957913755 23.0770132,1.21916296 23.3382624,1.48041217 L22.6415978,2.08999365 Z" id="Path"></path>
                            <polygon id="Path" points="28.6503296 7.66331004 27.953665 7.66331004 27.953665 1.04499682 28.6503296 1.04499682"></polygon>
                            <path d="M38.5777994,2.17707672 C38.3165502,1.91582751 38.055301,1.74166137 37.7940518,1.6545783 C37.5328026,1.56749524 37.0973872,1.48041217 36.749055,1.48041217 C36.3136396,1.48041217 35.9653073,1.56749524 35.6169751,1.74166137 C35.2686428,1.91582751 35.0073936,2.08999365 34.7461444,2.35124285 C34.4848952,2.61249206 34.310729,2.96082433 34.223646,3.22207354 C34.1365629,3.57040581 34.0494798,3.91873809 34.0494798,4.35415343 C34.0494798,4.70248571 34.1365629,5.13790105 34.223646,5.48623332 C34.310729,5.8345656 34.4848952,6.0958148 34.7461444,6.35706401 C35.0073936,6.61831322 35.2686428,6.79247935 35.6169751,6.96664549 C35.9653073,7.14081163 36.3136396,7.2278947 36.749055,7.2278947 C37.0973872,7.2278947 37.4457195,7.2278947 37.7069687,7.14081163 C38.055301,7.05372856 38.3165502,6.96664549 38.5777994,6.79247935 L38.5777994,4.61540264 L37.0103042,4.61540264 L37.0103042,4.00582116 L39.274464,4.00582116 L39.274464,7.2278947 C38.9261317,7.4891439 38.4907163,7.57622697 38.055301,7.75039311 C37.6198857,7.92455925 37.1844703,7.92455925 36.749055,7.92455925 C36.2265566,7.92455925 35.7911412,7.83747618 35.3557259,7.66331004 C34.9203105,7.4891439 34.5719782,7.2278947 34.223646,6.96664549 C33.8753137,6.70539629 33.7011476,6.26998094 33.5269814,5.8345656 C33.3528153,5.39915026 33.2657322,4.96373491 33.2657322,4.4412365 C33.2657322,3.91873809 33.3528153,3.48332275 33.5269814,3.0479074 C33.7011476,2.61249206 33.9623968,2.26415978 34.223646,1.91582751 C34.5719782,1.56749524 34.9203105,1.3933291 35.3557259,1.21916296 C35.7911412,1.04499682 36.2265566,0.957913755 36.749055,0.957913755 C37.2715534,0.957913755 37.7069687,1.04499682 38.1423841,1.21916296 C38.4907163,1.3933291 38.8390486,1.56749524 39.1873809,1.91582751 L38.5777994,2.17707672 Z" id="Path"></path>
                            <polygon id="Path" points="49.0277676 6.61831322 49.0277676 6.61831322 49.0277676 0.957913755 49.7244322 0.957913755 49.7244322 7.57622697 48.8536015 7.57622697 44.9348634 1.91582751 44.9348634 1.91582751 44.9348634 7.57622697 44.2381989 7.57622697 44.2381989 0.957913755 45.1090296 0.957913755"></polygon>
                            <path d="M57.9102406,2.08999365 C57.6489914,1.6545783 57.2135761,1.48041217 56.6039946,1.48041217 C56.4298285,1.48041217 56.2556623,1.48041217 56.0814962,1.56749524 C55.9073301,1.6545783 55.7331639,1.6545783 55.6460809,1.74166137 C55.4719147,1.82874444 55.3848317,2.00291058 55.2977486,2.08999365 C55.2106655,2.26415978 55.2106655,2.43832592 55.2106655,2.61249206 C55.2106655,2.87374127 55.2977486,3.13499047 55.4719147,3.30915661 C55.6460809,3.48332275 55.820247,3.57040581 56.0814962,3.74457195 C56.3427454,3.83165502 56.6039946,3.91873809 56.8652438,4.00582116 C57.126493,4.09290423 57.4748253,4.17998729 57.6489914,4.35415343 C57.9102406,4.52831957 58.0844068,4.70248571 58.2585729,4.87665184 C58.4327391,5.05081798 58.5198221,5.39915026 58.5198221,5.8345656 C58.5198221,6.0958148 58.4327391,6.44414708 58.345656,6.61831322 C58.2585729,6.87956242 58.0844068,7.05372856 57.8231576,7.2278947 C57.5619084,7.40206083 57.3877422,7.4891439 57.126493,7.57622697 C56.8652438,7.66331004 56.6039946,7.75039311 56.3427454,7.75039311 C55.9073301,7.75039311 55.5589978,7.66331004 55.2106655,7.4891439 C54.8623332,7.31497777 54.514001,7.05372856 54.2527518,6.70539629 L54.8623332,6.26998094 C55.0364994,6.53123015 55.2106655,6.70539629 55.4719147,6.87956242 C55.7331639,7.05372856 55.9944131,7.14081163 56.3427454,7.14081163 C56.5169115,7.14081163 56.6910777,7.14081163 56.8652438,7.05372856 C57.03941,6.96664549 57.2135761,6.87956242 57.3006592,6.79247935 C57.3877422,6.70539629 57.5619084,6.53123015 57.6489914,6.44414708 C57.7360745,6.26998094 57.7360745,6.0958148 57.7360745,5.92164867 C57.7360745,5.66039946 57.6489914,5.48623332 57.5619084,5.31206719 C57.4748253,5.13790105 57.3006592,5.05081798 57.2135761,4.96373491 C57.126493,4.87665184 56.8652438,4.78956878 56.6910777,4.70248571 C56.5169115,4.61540264 56.2556623,4.52831957 56.0814962,4.52831957 C55.9073301,4.4412365 55.6460809,4.35415343 55.4719147,4.26707036 C55.2977486,4.17998729 55.1235824,4.09290423 54.9494163,3.91873809 C54.7752502,3.74457195 54.6881671,3.65748888 54.601084,3.39623968 C54.514001,3.22207354 54.4269179,2.96082433 54.4269179,2.61249206 C54.4269179,2.26415978 54.514001,2.00291058 54.601084,1.74166137 C54.6881671,1.48041217 54.8623332,1.30624603 55.1235824,1.13207989 C55.2977486,0.957913755 55.5589978,0.870830686 55.820247,0.783747618 C56.0814962,0.696664549 56.3427454,0.696664549 56.6039946,0.696664549 C56.9523269,0.696664549 57.3006592,0.783747618 57.6489914,0.870830686 C57.9973237,0.957913755 58.2585729,1.21916296 58.5198221,1.48041217 L57.9102406,2.08999365 Z" id="Path"></path>
                        </g>
                    </g>
                </g>
            </g>
        </g>
    </g>
</svg>